<?xml version="1.0" encoding="utf-8"?>
<!-- Generator: Adobe Illustrator 23.0.2, SVG Export Plug-In . SVG Version: 6.00 Build 0)  -->
<svg version="1.1" id="Livello_1" xmlns="http://www.w3.org/2000/svg" xmlns:xlink="http://www.w3.org/1999/xlink" x="0px" y="0px"
	 viewBox="0 0 266.5 100.6" style="enable-background:new 0 0 266.5 100.6;" xml:space="preserve">
<style type="text/css">
	.st0{fill:#FEF0CF;}
</style>
<path class="st0" d="M29.5,27.5h-6.1L13,0h5.4l8.2,22.2L34.7,0h5.2L29.5,27.5z M42.7,27.5V0h5.1v27.5H42.7z M16.7,63.9L4.8,43.7
	v20.1H0V36.4h5.9l11.5,19.5V36.4h4.8v27.5H16.7z M27.7,63.9V36.4h20v4.5H32.6v7h14.5v4.5H32.6v7h15.3v4.5L27.7,63.9z M58.5,23V0
	h-5.1v27.5h20.2v8.9H53.4v27.5h20.2v8.9H53.4v27.5h25.3v-4.5H58.5V77.2h20.2V59.4H58.5V40.8h20.2V23H58.5z M104.7,59.9
	c-1.8,2.6-5.1,4.3-10.1,4.3c-4.1,0-7.3-1-9.5-3.2s-3.5-5.7-3.5-11c0-4.8,1-8.2,3.2-10.5S90,36,94.5,36c6,0,9.2,2.2,10.8,5.1
	c0.9,1.7,1.4,3.6,1.5,5.5h-5.2c0-1.4-0.5-2.8-1.5-3.9c-1.1-1.5-2.8-2.2-5.8-2.2s-4.4,0.7-5.7,2.1s-1.9,4-1.9,7.4
	c0,4,0.8,6.3,2.2,7.8c1.5,1.4,3.5,2.1,5.6,2c2,0.1,3.9-0.6,5.4-2c1-1.1,1.6-2.6,1.7-4.1h5.1C106.7,56,106,58.2,104.7,59.9
	L104.7,59.9z M128.7,63.9V52.4h-12.6v11.4h-5V36.4h5v11.4h12.6V36.4h5v27.5H128.7z M139.3,63.9V36.4h5.1v27.5H139.3z M86.6,100.2
	h-5.2L92,72.8h6.3l10.1,27.5h-5.2l-2.4-6.7H89.1L86.6,100.2z M95.8,79.7l-0.7-2.3l-0.7,2.4l-3.7,9.5h8.5L95.8,79.7z M134.8,100.2
	V80.7l-7,19.5h-5.1l-6.8-19.5v19.5h-4.7V72.8h6.9l7.2,21l7.5-21h6.7v27.5L134.8,100.2z M165.9,87.9c-1.4,1.8-3.7,2.7-7,2.7
	c-0.7,0-8.9,0-8.9,0v9.6h-5.1V72.8h14c3.5,0,5.7,0.9,6.9,2.5s1.6,3.4,1.6,6.4S166.9,86.5,165.9,87.9z M161.8,78.8
	c-0.6-1-1.8-1.6-3.9-1.6H150v9h7.9c2.3,0,3.4-0.6,4-1.6s0.5-1.5,0.5-2.9C162.4,80.7,162.2,79.7,161.8,78.8L161.8,78.8z M171.4,100.2
	V72.8h5.1v27.5L171.4,100.2z M200.9,100.2l-0.2-2.8c-1,1.5-3.4,3.1-8.1,3.1c-4.1,0-7.3-1.4-9.3-3.8s-2.7-5.5-2.7-10.3
	c0-4.2,0.5-7.3,2.6-10s4.9-4.2,10-4.2s8.6,1.8,10.2,4.5c1,1.6,1.5,3.4,1.5,5.3h-5c-0.1-1.3-0.6-2.6-1.5-3.6
	c-1.4-1.2-3.3-1.8-5.2-1.7c-2.1-0.1-4.1,0.6-5.6,2c-1.2,1.4-1.9,3.9-1.9,7.9s0.4,6.2,1.9,7.9s3,2,6.1,2c3.9,0,6-2.1,6.6-4.4
	c0.1-0.2,0-3.3,0-3.3H192v-4.2h13v8.2c0,3.4,0,7.3,0,7.4L200.9,100.2z M209.3,100.2V72.8h5v23h14v4.5L209.3,100.2z M231.6,100.2
	V72.8h5.1v27.5L231.6,100.2z M264.1,76.5c1.7,2.1,2.4,5.4,2.4,9.8s-0.9,7.9-2.6,10.2s-5.3,4.1-10.2,4.1s-8.2-1.4-10.3-4
	s-2.6-5.7-2.6-10.2s0.8-7.5,2.5-9.7s5.3-4.3,10.4-4.3S262,73.8,264.1,76.5L264.1,76.5z M259.3,94.2c1.5-1.4,2.1-4.4,2.1-7.8
	s-0.6-6.2-1.9-7.6s-2.9-2.2-5.9-2.2s-4.5,0.8-5.8,2.2s-1.9,4.3-1.9,7.6s0.7,6.4,2.3,7.9s2.8,1.9,5.5,1.9
	C255.8,96.4,257.8,95.7,259.3,94.2L259.3,94.2z M82.3,27.5V0h5v23h14v4.5H82.3z M109.3,27.5h-5.1L114.7,0h6.3l10.1,27.5h-5.2
	l-2.4-6.7h-11.6L109.3,27.5z M118.5,7l-0.7-2.3L117.1,7l-3.7,9.5h8.5L118.5,7z"/>
</svg>
