<svg xmlns="http://www.w3.org/2000/svg" width="266.5" height="100.604" viewBox="0 0 266.5 100.604"><path d="M29.482,27.483H23.419L12.992,0h5.363l8.228,22.153L34.745,0h5.2Zm13.258,0V0h5.1V27.483ZM16.723,63.86,4.8,43.739V63.827H0V36.377H5.9L17.422,55.9V36.377h4.8V63.86Zm10.96,0V36.377H47.67v4.5H32.58v6.962H47.071v4.531H32.58V59.4H47.837v4.5ZM58.463,23.019V0H53.4V27.483H73.621v8.894H53.4V63.86H73.621v8.894H53.4v27.483H78.651V95.773H58.463V77.185H78.684V59.4H58.463V40.841H78.684V23.019Zm46.2,36.91c-1.832,2.6-5.063,4.3-10.094,4.3-4.1,0-7.329-.966-9.527-3.165s-3.465-5.73-3.465-11.026c0-4.764,1.033-8.195,3.165-10.493s5.23-3.564,9.761-3.564c6.03,0,9.228,2.2,10.793,5.13a12.293,12.293,0,0,1,1.5,5.463h-5.163a6.23,6.23,0,0,0-1.466-3.9c-1.133-1.466-2.832-2.165-5.763-2.165s-4.4.733-5.663,2.132-1.932,4-1.932,7.429c0,3.964.833,6.329,2.2,7.8a7.44,7.44,0,0,0,5.6,2,7.848,7.848,0,0,0,5.43-1.965,6.8,6.8,0,0,0,1.7-4.064h5.1A11.126,11.126,0,0,1,104.668,59.929Zm24.085,3.931V52.434H116.194V63.827h-5V36.377h5V47.77h12.559V36.377h4.964V63.86Zm10.56,0V36.377h5.1V63.86Zm-52.7,36.377H81.449l10.56-27.483h6.3l10.06,27.483h-5.2l-2.432-6.662H89.144Zm9.194-20.52-.7-2.332-.7,2.365-3.664,9.494H99.2Zm38.976,20.52V80.716l-7.029,19.521H122.69l-6.829-19.521v19.521H111.2V72.755h6.9l7.2,21.02,7.5-21.02h6.663v27.483ZM165.93,87.878c-1.366,1.832-3.731,2.665-7.029,2.732-.7.033-8.894-.033-8.894-.033V100.2h-5.063V72.755h13.991c3.531,0,5.663.9,6.862,2.532s1.566,3.4,1.566,6.4S166.929,86.546,165.93,87.878Zm-4.1-9.128c-.566-1.033-1.8-1.566-3.9-1.566h-7.928v8.994h7.862c2.3,0,3.4-.633,3.964-1.566s.466-1.532.466-2.9a6.406,6.406,0,0,0-.5-2.965Zm9.561,21.453V72.755h5.1v27.483Zm29.548,0-.233-2.765c-1.033,1.532-3.431,3.131-8.095,3.131-4.064,0-7.3-1.4-9.294-3.764s-2.7-5.463-2.7-10.327c0-4.164.5-7.3,2.565-10.027s4.9-4.164,10.027-4.164,8.595,1.766,10.194,4.5a10.161,10.161,0,0,1,1.466,5.3h-4.964a6.151,6.151,0,0,0-1.466-3.631,7.292,7.292,0,0,0-5.163-1.7,7.464,7.464,0,0,0-5.63,2c-1.233,1.366-1.932,3.864-1.932,7.862s.366,6.2,1.865,7.9,3,2.032,6.1,2.032c3.864,0,6-2.065,6.6-4.4.067-.167.033-3.265.033-3.265h-8.361v-4.2h12.992v8.162c0,3.365.033,7.262.033,7.362Zm8.328,0V72.755h5.03V95.773h13.958v4.464Zm22.353,0V72.755h5.1v27.483Zm32.446-23.718c1.666,2.1,2.432,5.363,2.432,9.827s-.9,7.9-2.6,10.194-5.3,4.1-10.227,4.1-8.195-1.366-10.26-4.031-2.565-5.663-2.565-10.194.766-7.529,2.465-9.727,5.263-4.264,10.36-4.264,8.295,1.4,10.393,4.131Zm-4.73,17.722c1.5-1.432,2.132-4.431,2.132-7.8s-.633-6.229-1.9-7.562-2.865-2.2-5.863-2.2-4.53.833-5.8,2.232-1.9,4.264-1.9,7.562.733,6.363,2.3,7.9,2.765,1.9,5.463,1.9a7.375,7.375,0,0,0,5.563-2ZM82.349,27.483V0h5.03V23.019h13.958v4.464Zm26.95,0h-5.13L114.728,0h6.3l10.06,27.483h-5.23l-2.432-6.662H111.83Zm9.194-20.52-.7-2.332L117.093,7l-3.664,9.494h8.461Z" transform="translate(0 0)"/></svg>